<svg id="Layer_2_copy" data-name="Layer 2 copy" xmlns="http://www.w3.org/2000/svg" viewBox="0 0 841.89 433.24"><defs><style>.cls-1{fill:#B2967D;}</style></defs><title>logo</title><path class="cls-1" d="M185.68,104.14c-2.79,2.61-45.62,138.59-45.62,138.59C105.6,351.44,78.76,358.54,69,359.11c-25,1.45-23.71-103.35-23.4-118a.85.85,0,0,0-1.34-.7C36.66,245.91,0,272.37,0,274.16c.23,14.47.87,27.63,1.85,39.59,10.81,132,63.22,119.1,63.22,119.1,47.15-10.81,100-164.58,100.47-169s-2,42,37.88,44.85,92.23-108.26,92.23-108.26c1.26,97.69,26.91,229.63,141.29,230.72,87.56.84,120.8-147,123.55-159.91a4.11,4.11,0,0,0,0-1.78l-6.22-25.41a.35.35,0,0,0-.67,0C518.35,366.61,429,357.37,429,357.37,286,346,374,57.2,382.36,30.68a2.65,2.65,0,0,0-1.12-3h0a2.47,2.47,0,0,0-3.13.44C368,38.68,335.8,46,326.73,47.83a3.19,3.19,0,0,0-2.53,2.77c-3.69,32.72-85.71,203-112.69,198.81-27.68-4.28-9.33-152.36-8.95-154.35s-16.88,9.08-16.88,9.08Z" transform="translate(0 0.04)"/><path class="cls-1" d="M840.85.24c-91.13,154.87-133.06,140.9-133.06,140.9-34.44-4,4-101.6,10.21-116.81a.82.82,0,0,0-1.1-1A19.93,19.93,0,0,1,701,22.92a1.32,1.32,0,0,0-1.72.61c-18.38,36.38-47,51.76-54.88,55.46a5.11,5.11,0,0,1-6.64-2.09c-1.89-3.41-1.4-8.91-1-12.46.23-1.8-2.45-.61-2.45-.61-7.84,7.61-18.93,12.07-23.26,13.62a2.75,2.75,0,0,0-1.83,2.62c-.09,71.28-37.36,93.52-37.36,93.52-14.84-7.16,3.25-60.08,9.59-77.28A4.71,4.71,0,0,0,576.3,90c-24.57,3.77-81,57.23-81,57.23-12.25,9.18-23.27,0-23.27,0-14.08-11-19.79,0-19.79,0-6.94,1.22-43.28,30.62-51.85,35.51-6.81,3.9-17.87,1.6-22.13.5a1.13,1.13,0,0,0-1.41,1.27c2.38,14.51-4.68,31.55-6.19,35a1.76,1.76,0,0,0,0,1.47c2.23,4.48,17.71,3,17.71,3-9.49,40.58-3.48,61.81,4.52,70.83a22.77,22.77,0,0,0,23.77,6.33c44.8-13.75,56-109.2,56-109.2,4.29,1.22,14.7-3.67,14.7-3.67-9.85,26.41-12.37,54.42-.4,62.41a11.71,11.71,0,0,0,4.59,1.71c27.19,4.46,47.86-30.45,47.86-30.45,3.06,11.64,17.14,10.41,17.14,10.41C593.9,225.64,636.15,116,636.15,116c8.57-2.45,22.66-9.18,22.66-9.18-15.29,92.91,36.11,97.39,40.73,97.36.21,0,.4.06.61.07C751.5,205.89,827.3,71.68,840,48.42a15,15,0,0,0,1.85-7.24V.52A.56.56,0,0,0,840.85.24ZM418.93,249.82c-19-1.56,11.59-68.28,19.6-68.42C456.16,181.08,430.11,250.74,418.93,249.82Zm118.43-71.94c-10,21.06-18.05,24.56-22.75,24.13a4.77,4.77,0,0,1-4.19-5.46c6.19-45.19,40.42-69.5,40.42-69.5C555.73,132.77,537.36,177.88,537.36,177.88Z" transform="translate(0 0.04)"/></svg>