<svg id="Layer_2_copy" data-name="Layer 2 copy" xmlns="http://www.w3.org/2000/svg" viewBox="0 0 841.89 433.24"><defs><style>.cls-1{fill:#fff;}</style></defs><title>logo</title><path class="cls-1" d="M185.68,104.14c-2.79,2.61-45.62,138.59-45.62,138.59C105.6,351.44,78.76,358.54,69,359.11c-25,1.45-23.71-103.35-23.4-118a.85.85,0,0,0-1.34-.7C36.66,245.91,0,272.37,0,274.16c.23,14.47.87,27.63,1.85,39.59,10.81,132,63.22,119.1,63.22,119.1,47.15-10.81,100-164.58,100.47-169s-2,42,37.88,44.85,92.23-108.26,92.23-108.26c1.26,97.69,26.91,229.63,141.29,230.72,87.56.84,120.8-147,123.55-159.91a4.11,4.11,0,0,0,0-1.78l-6.22-25.41a.35.35,0,0,0-.67,0C518.35,366.61,429,357.37,429,357.37,286,346,374,57.2,382.36,30.68a2.65,2.65,0,0,0-1.12-3h0a2.47,2.47,0,0,0-3.13.44C368,38.68,335.8,46,326.73,47.83a3.19,3.19,0,0,0-2.53,2.77c-3.69,32.72-85.71,203-112.69,198.81-27.68-4.28-9.33-152.36-8.95-154.35s-16.88,9.08-16.88,9.08Z" transform="translate(0 0.04)"/><path class="cls-1" d="M376.87,184.54a1.13,1.13,0,0,1,1.41-1.27c4.26,1.1,15.32,3.4,22.13-.5,8.57-4.89,44.91-34.29,51.85-35.51,0,0,5.71-11,19.79,0,0,0,11,9.18,23.27,0,0,0,56.41-53.46,81-57.23a4.71,4.71,0,0,1,5.15,6.28c-6.34,17.2-24.43,70.12-9.59,77.28,0,0,37.27-22.24,37.36-93.52a2.75,2.75,0,0,1,1.83-2.62c4.33-1.55,15.42-6,23.26-13.62,0,0,2.68-1.19,2.45.61-.44,3.55-.93,9,1,12.46A5.11,5.11,0,0,0,644.36,79c7.91-3.7,36.5-19.08,54.88-55.46a1.32,1.32,0,0,1,1.72-.61,19.93,19.93,0,0,0,15.94.37.82.82,0,0,1,1.1,1c-6.21,15.21-44.65,112.85-10.21,116.81,0,0,41.93,14,133.06-140.9a.56.56,0,0,1,1,.28V41.18A15,15,0,0,1,840,48.42C827.3,71.68,751.5,205.89,700.15,204.28c-.21,0-.4-.07-.61-.07-4.62,0-56-4.45-40.73-97.36,0,0-14.09,6.73-22.66,9.18,0,0-42.25,109.61-79.6,116.34,0,0-14.08,1.23-17.14-10.41,0,0-20.67,34.91-47.86,30.45A11.71,11.71,0,0,1,487,250.7c-12-8-9.45-36,.4-62.41,0,0-10.41,4.89-14.7,3.67,0,0-11.2,95.45-56,109.2a22.77,22.77,0,0,1-23.77-6.33c-8-9-14-30.25-4.52-70.83,0,0-15.48,1.46-17.71-3a1.76,1.76,0,0,1,0-1.47C372.19,216.09,379.25,199.05,376.87,184.54Z" transform="translate(0 0.04)"/><path class="cls-1" d="M438.53,181.4c-8,.14-38.59,66.86-19.6,68.42C430.11,250.74,456.16,181.08,438.53,181.4Z" transform="translate(0 0.04)"/><path class="cls-1" d="M550.84,127.05s-34.23,24.31-40.42,69.5a4.77,4.77,0,0,0,4.19,5.46c4.7.43,12.73-3.07,22.75-24.13C537.36,177.88,555.73,132.77,550.84,127.05Z" transform="translate(0 0.04)"/></svg>